<?xml version="1.0" encoding="UTF-8" standalone="no"?>
<svg
   xmlns:svg="http://www.w3.org/2000/svg"
   xmlns="http://www.w3.org/2000/svg"
   width="63.000198mm"
   height="88.000275mm"
   viewBox="0 0 238.11099 332.59947"
   version="1.1"
   id="svg8">
  <title
     id="title8745">Vector Playing Cards</title>
  <defs
     id="defs2" />
  <g
     id="layer1"
     transform="translate(552.2712,-1075.6353)">
    <g
       transform="matrix(1.06667,0,0,1.06667,-1891.7,1108.11)"
       id="DIAMOND-4">
      <rect
         ry="10.66401"
         rx="10.677597"
         style="display:inline;fill:#ffffff;fill-opacity:1;stroke:none;stroke-width:1.00057;stroke-miterlimit:4;stroke-dasharray:none;stroke-opacity:1"
         id="rect6622-5"
         width="223.22835"
         height="311.81104"
         x="1255.7106"
         y="-30.444927" />
      <path
         style="display:inline;opacity:1;fill:#c8102e;fill-opacity:1"
         d="m 1272.9278,39.528358 c -2.1609,-3.568597 -4.4343,-7.037098 -7.2754,-9.999997 2.8411,-2.962801 5.1145,-6.4313 7.2754,-10 2.1609,3.5687 4.4344,7.037199 7.2754,10 -2.841,2.962899 -5.1145,6.4314 -7.2754,9.999997 z"
         id="path6654-0" />
      <path
         style="display:inline;opacity:1;fill:#c8102e;fill-opacity:1"
         d="m 1419.0911,50.24996 c -5.1862,-8.5648 -10.6424,-16.8891 -17.4609,-24 6.8185,-7.1108 12.2747,-15.4351 17.4609,-24 5.1862,8.5649 10.6425,16.8892 17.461,24 -6.8185,7.1109 -12.2748,15.4352 -17.461,24 z"
         id="path6656-6" />
      <path
         id="path6658-8"
         d="m 1461.7223,231.393 c -2.1609,-3.5686 -4.4343,-7.0371 -7.2754,-10 2.8411,-2.9628 5.1145,-6.4313 7.2754,-10 2.1609,3.5687 4.4344,7.0372 7.2754,10 -2.841,2.9629 -5.1145,6.4314 -7.2754,10 z"
         style="display:inline;opacity:1;fill:#c8102e;fill-opacity:1" />
      <path
         style="display:inline;opacity:1;fill:#c8102e;fill-opacity:1"
         d="m 1315.5583,50.24996 c -5.1862,-8.5648 -10.6424,-16.8891 -17.4609,-24 6.8185,-7.1108 12.2747,-15.4351 17.4609,-24 5.1862,8.5649 10.6425,16.8892 17.461,24 -6.8185,7.1109 -12.2748,15.4352 -17.461,24 z"
         id="path6660-7" />
      <path
         id="path6676-4"
         d="m 1315.5583,248.67634 c -5.1862,-8.5648 -10.6424,-16.8891 -17.4609,-24 6.8185,-7.1108 12.2747,-15.4351 17.4609,-24 5.1862,8.5649 10.6425,16.8892 17.461,24 -6.8185,7.1109 -12.2748,15.4352 -17.461,24 z"
         style="display:inline;opacity:1;fill:#c8102e;fill-opacity:1" />
      <path
         id="path6678-8"
         d="m 1419.0911,248.68328 c -5.1862,-8.5648 -10.6424,-16.8891 -17.4609,-24 6.8185,-7.1108 12.2747,-15.4351 17.4609,-24 5.1862,8.5649 10.6425,16.8892 17.461,24 -6.8185,7.1109 -12.2748,15.4352 -17.461,24 z"
         style="display:inline;opacity:1;fill:#c8102e;fill-opacity:1" />
      <path
         d="m 1273.1578,16.3887 v -2.9146 h 2.6305 v -4.808 h -13.1577 V 5.2735 l 14.2377,-21.8808 2.3258,0.012 v 21.869 h 4.028 v 3.3926 h -4.028 l -0.076,4.808 h 2.2049 v 2.9186 h -8.1653 z m 2.6305,-24.9853 -9.0396,13.8714 h 9.0396 z m 0,0"
         id="path19-3-1-9-0"
         style="opacity:1;fill:#c8102e;fill-opacity:1" />
      <path
         d="m 1461.4894,234.5325 v 2.9147 h -2.6305 v 4.808 h 13.1577 v 3.3925 l -14.2377,21.8809 -2.3258,-0.012 v -21.8691 h -4.028 v -3.3925 h 4.028 l 0.076,-4.808 h -2.2049 v -2.9186 h 8.1653 z m -2.6305,24.9854 9.0396,-13.8715 h -9.0396 z m 0,0"
         id="path19-4-46-7-7"
         style="opacity:1;fill:#c8102e;fill-opacity:1" />
    </g>
  </g>
  </svg>
